<mxfile host="65bd71144e">
    <diagram id="iM0CJBqtlScPR7n15AVv" name="ページ1">
        <mxGraphModel dx="1546" dy="528" grid="0" gridSize="10" guides="1" tooltips="1" connect="1" arrows="1" fold="1" page="0" pageScale="1" pageWidth="850" pageHeight="1100" math="0" shadow="0">
            <root>
                <mxCell id="0"/>
                <mxCell id="1" parent="0"/>
                <mxCell id="15" value="" style="group" vertex="1" connectable="0" parent="1">
                    <mxGeometry x="-216" y="462" width="219" height="120" as="geometry"/>
                </mxCell>
                <mxCell id="13" value="A100" style="rounded=0;whiteSpace=wrap;html=1;fontSize=14;" vertex="1" parent="15">
                    <mxGeometry width="120" height="40" as="geometry"/>
                </mxCell>
                <mxCell id="14" value="&lt;span style=&quot;font-size: 15px;&quot;&gt;トップ&lt;/span&gt;" style="rounded=0;whiteSpace=wrap;html=1;fontSize=14;" vertex="1" parent="15">
                    <mxGeometry y="40" width="120" height="80" as="geometry"/>
                </mxCell>
                <mxCell id="16" value="" style="group" vertex="1" connectable="0" parent="1">
                    <mxGeometry x="-38" y="462" width="120" height="120" as="geometry"/>
                </mxCell>
                <mxCell id="17" value="A110" style="rounded=0;whiteSpace=wrap;html=1;fontSize=14;" vertex="1" parent="16">
                    <mxGeometry width="120" height="40" as="geometry"/>
                </mxCell>
                <mxCell id="18" value="&lt;span style=&quot;font-size: 15px;&quot;&gt;ユーザ登録&lt;/span&gt;" style="rounded=0;whiteSpace=wrap;html=1;fontSize=14;" vertex="1" parent="16">
                    <mxGeometry y="40" width="120" height="80" as="geometry"/>
                </mxCell>
                <mxCell id="19" value="" style="group;fontColor=default;labelBackgroundColor=default;" vertex="1" connectable="0" parent="1">
                    <mxGeometry x="-39" y="623" width="120" height="120" as="geometry"/>
                </mxCell>
                <mxCell id="20" value="&lt;span style=&quot;font-family: Arial; font-size: 13px; text-align: left;&quot;&gt;A120&lt;/span&gt;" style="rounded=0;whiteSpace=wrap;html=1;fontSize=14;fontColor=default;labelBackgroundColor=default;" vertex="1" parent="19">
                    <mxGeometry width="120" height="40" as="geometry"/>
                </mxCell>
                <mxCell id="21" value="&lt;span style=&quot;font-family: Arial; font-size: 13px; text-align: left;&quot;&gt;ログイン&lt;/span&gt;" style="rounded=0;whiteSpace=wrap;html=1;fontSize=14;fontColor=default;labelBackgroundColor=default;" vertex="1" parent="19">
                    <mxGeometry y="40" width="120" height="80" as="geometry"/>
                </mxCell>
                <mxCell id="22" value="" style="endArrow=classic;html=1;fontSize=14;fontColor=default;edgeStyle=elbowEdgeStyle;entryX=0;entryY=0.5;entryDx=0;entryDy=0;exitX=1;exitY=0.5;exitDx=0;exitDy=0;" edge="1" parent="1" source="14" target="18">
                    <mxGeometry width="50" height="50" relative="1" as="geometry">
                        <mxPoint x="-89" y="607" as="sourcePoint"/>
                        <mxPoint x="-223" y="796" as="targetPoint"/>
                    </mxGeometry>
                </mxCell>
                <mxCell id="23" value="" style="endArrow=classic;html=1;fontSize=14;fontColor=default;edgeStyle=elbowEdgeStyle;entryX=0;entryY=0.25;entryDx=0;entryDy=0;exitX=1;exitY=0.5;exitDx=0;exitDy=0;" edge="1" parent="1" source="14" target="21">
                    <mxGeometry width="50" height="50" relative="1" as="geometry">
                        <mxPoint x="-86" y="552" as="sourcePoint"/>
                        <mxPoint x="-28" y="552" as="targetPoint"/>
                    </mxGeometry>
                </mxCell>
                <mxCell id="24" value="" style="endArrow=classic;html=1;fontSize=14;fontColor=default;edgeStyle=elbowEdgeStyle;entryX=1;entryY=0.25;entryDx=0;entryDy=0;exitX=0;exitY=0.25;exitDx=0;exitDy=0;" edge="1" parent="1" source="18" target="14">
                    <mxGeometry width="50" height="50" relative="1" as="geometry">
                        <mxPoint x="-86" y="552" as="sourcePoint"/>
                        <mxPoint x="-28" y="552" as="targetPoint"/>
                    </mxGeometry>
                </mxCell>
                <mxCell id="25" value="" style="endArrow=classic;html=1;fontSize=14;fontColor=default;edgeStyle=elbowEdgeStyle;entryX=0.75;entryY=1;entryDx=0;entryDy=0;exitX=0;exitY=0.5;exitDx=0;exitDy=0;" edge="1" parent="1" source="21" target="14">
                    <mxGeometry width="50" height="50" relative="1" as="geometry">
                        <mxPoint x="-86" y="552" as="sourcePoint"/>
                        <mxPoint x="-29" y="693" as="targetPoint"/>
                        <Array as="points">
                            <mxPoint x="-126" y="647"/>
                        </Array>
                    </mxGeometry>
                </mxCell>
                <mxCell id="26" value="" style="group;fontColor=default;labelBackgroundColor=default;" vertex="1" connectable="0" parent="1">
                    <mxGeometry x="136" y="462" width="120" height="120" as="geometry"/>
                </mxCell>
                <mxCell id="27" value="&lt;div style=&quot;text-align: left;&quot;&gt;&lt;font face=&quot;Arial&quot;&gt;&lt;span style=&quot;font-size: 13px;&quot;&gt;C000&lt;/span&gt;&lt;/font&gt;&lt;/div&gt;" style="rounded=0;whiteSpace=wrap;html=1;fontSize=14;fontColor=default;labelBackgroundColor=default;" vertex="1" parent="26">
                    <mxGeometry width="120" height="40" as="geometry"/>
                </mxCell>
                <mxCell id="28" value="&lt;span style=&quot;font-family: Arial; font-size: 13px; text-align: left;&quot;&gt;ホーム&lt;/span&gt;" style="rounded=0;whiteSpace=wrap;html=1;fontSize=14;fontColor=default;labelBackgroundColor=default;" vertex="1" parent="26">
                    <mxGeometry y="40" width="120" height="80" as="geometry"/>
                </mxCell>
                <mxCell id="30" value="" style="edgeStyle=elbowEdgeStyle;html=1;fontSize=14;fontColor=default;exitX=1;exitY=0.5;exitDx=0;exitDy=0;entryX=0;entryY=0.5;entryDx=0;entryDy=0;" edge="1" parent="1" source="18" target="28">
                    <mxGeometry relative="1" as="geometry">
                        <mxPoint x="-28" y="552" as="sourcePoint"/>
                        <mxPoint x="107" y="637" as="targetPoint"/>
                    </mxGeometry>
                </mxCell>
                <mxCell id="32" value="" style="endArrow=classic;html=1;fontSize=14;fontColor=default;edgeStyle=elbowEdgeStyle;entryX=0;entryY=0.5;entryDx=0;entryDy=0;exitX=1;exitY=0.25;exitDx=0;exitDy=0;" edge="1" parent="1" source="21" target="28">
                    <mxGeometry width="50" height="50" relative="1" as="geometry">
                        <mxPoint x="-86" y="552" as="sourcePoint"/>
                        <mxPoint x="-29" y="693" as="targetPoint"/>
                    </mxGeometry>
                </mxCell>
                <mxCell id="33" value="" style="group;fontColor=default;labelBackgroundColor=default;" vertex="1" connectable="0" parent="1">
                    <mxGeometry x="299" y="462" width="120" height="120" as="geometry"/>
                </mxCell>
                <mxCell id="34" value="&lt;div style=&quot;text-align: left;&quot;&gt;&lt;font face=&quot;Arial&quot;&gt;&lt;span style=&quot;font-size: 13px;&quot;&gt;C001&lt;/span&gt;&lt;/font&gt;&lt;/div&gt;" style="rounded=0;whiteSpace=wrap;html=1;fontSize=14;fontColor=default;labelBackgroundColor=default;" vertex="1" parent="33">
                    <mxGeometry width="120" height="40" as="geometry"/>
                </mxCell>
                <mxCell id="35" value="&lt;span style=&quot;font-family: Arial; font-size: 13px; text-align: left;&quot;&gt;筋トレ記録一覧&lt;/span&gt;" style="rounded=0;whiteSpace=wrap;html=1;fontSize=14;fontColor=default;labelBackgroundColor=default;" vertex="1" parent="33">
                    <mxGeometry y="40" width="120" height="80" as="geometry"/>
                </mxCell>
                <mxCell id="36" value="" style="edgeStyle=elbowEdgeStyle;html=1;fontSize=14;fontColor=default;entryX=0;entryY=0.5;entryDx=0;entryDy=0;exitX=1;exitY=0.5;exitDx=0;exitDy=0;" edge="1" parent="1" source="28" target="35">
                    <mxGeometry relative="1" as="geometry">
                        <mxPoint x="92" y="552" as="sourcePoint"/>
                        <mxPoint x="146" y="552" as="targetPoint"/>
                    </mxGeometry>
                </mxCell>
                <mxCell id="37" value="" style="endArrow=classic;html=1;fontSize=14;fontColor=default;edgeStyle=elbowEdgeStyle;entryX=1;entryY=0.25;entryDx=0;entryDy=0;exitX=0;exitY=0.25;exitDx=0;exitDy=0;" edge="1" parent="1" source="35" target="28">
                    <mxGeometry width="50" height="50" relative="1" as="geometry">
                        <mxPoint x="-28" y="532" as="sourcePoint"/>
                        <mxPoint x="-86" y="532" as="targetPoint"/>
                    </mxGeometry>
                </mxCell>
                <mxCell id="38" value="" style="group;fontColor=default;labelBackgroundColor=default;" vertex="1" connectable="0" parent="1">
                    <mxGeometry x="299" y="611" width="120" height="120" as="geometry"/>
                </mxCell>
                <mxCell id="39" value="&lt;div style=&quot;text-align: left;&quot;&gt;&lt;font face=&quot;Arial&quot;&gt;&lt;span style=&quot;font-size: 13px;&quot;&gt;C002&lt;/span&gt;&lt;/font&gt;&lt;/div&gt;" style="rounded=0;whiteSpace=wrap;html=1;fontSize=14;fontColor=default;labelBackgroundColor=default;" vertex="1" parent="38">
                    <mxGeometry width="120" height="40" as="geometry"/>
                </mxCell>
                <mxCell id="40" value="&lt;span style=&quot;font-family: Arial; font-size: 13px; text-align: left;&quot;&gt;筋トレメニュー&lt;/span&gt;" style="rounded=0;whiteSpace=wrap;html=1;fontSize=14;fontColor=default;labelBackgroundColor=default;" vertex="1" parent="38">
                    <mxGeometry y="40" width="120" height="80" as="geometry"/>
                </mxCell>
                <mxCell id="41" value="" style="group;fontColor=default;labelBackgroundColor=default;" vertex="1" connectable="0" parent="1">
                    <mxGeometry x="299" y="766" width="120" height="120" as="geometry"/>
                </mxCell>
                <mxCell id="42" value="&lt;div style=&quot;text-align: left;&quot;&gt;&lt;font face=&quot;Arial&quot;&gt;&lt;span style=&quot;font-size: 13px;&quot;&gt;C003&lt;/span&gt;&lt;/font&gt;&lt;/div&gt;" style="rounded=0;whiteSpace=wrap;html=1;fontSize=14;fontColor=default;labelBackgroundColor=default;" vertex="1" parent="41">
                    <mxGeometry width="120" height="40" as="geometry"/>
                </mxCell>
                <mxCell id="43" value="&lt;span style=&quot;font-family: Arial; font-size: 13px; text-align: left;&quot;&gt;筋トレメニュー&lt;br&gt;入力方法&lt;br&gt;&lt;/span&gt;" style="rounded=0;whiteSpace=wrap;html=1;fontSize=14;fontColor=default;labelBackgroundColor=default;" vertex="1" parent="41">
                    <mxGeometry y="40" width="120" height="80" as="geometry"/>
                </mxCell>
                <mxCell id="44" value="" style="group;fontColor=default;labelBackgroundColor=default;" vertex="1" connectable="0" parent="1">
                    <mxGeometry x="299" y="920" width="120" height="120" as="geometry"/>
                </mxCell>
                <mxCell id="45" value="&lt;div style=&quot;text-align: left;&quot;&gt;&lt;font face=&quot;Arial&quot;&gt;&lt;span style=&quot;font-size: 13px;&quot;&gt;C004&lt;/span&gt;&lt;/font&gt;&lt;/div&gt;" style="rounded=0;whiteSpace=wrap;html=1;fontSize=14;fontColor=default;labelBackgroundColor=default;" vertex="1" parent="44">
                    <mxGeometry width="120" height="40" as="geometry"/>
                </mxCell>
                <mxCell id="46" value="&lt;span style=&quot;font-family: Arial; font-size: 13px; text-align: left;&quot;&gt;筋トレ回数変更&lt;br&gt;&lt;/span&gt;" style="rounded=0;whiteSpace=wrap;html=1;fontSize=14;fontColor=default;labelBackgroundColor=default;" vertex="1" parent="44">
                    <mxGeometry y="40" width="120" height="80" as="geometry"/>
                </mxCell>
                <mxCell id="47" value="以下のいずれか&lt;br&gt;　・未ログイン時にヘッダのロゴを押下&lt;br&gt;　・ログアウト&lt;br&gt;　・ユーザ削除" style="text;html=1;strokeColor=none;fillColor=none;align=left;verticalAlign=middle;whiteSpace=wrap;rounded=0;labelBackgroundColor=default;fontSize=14;fontColor=#FF0000;" vertex="1" parent="1">
                    <mxGeometry x="-276" y="328" width="267" height="95" as="geometry"/>
                </mxCell>
                <mxCell id="48" value="ログイン時にヘッダのロゴを押下" style="text;html=1;strokeColor=none;fillColor=none;align=left;verticalAlign=middle;whiteSpace=wrap;rounded=0;labelBackgroundColor=default;fontSize=14;fontColor=#FF0000;" vertex="1" parent="1">
                    <mxGeometry x="97" y="378" width="222" height="45" as="geometry"/>
                </mxCell>
                <mxCell id="49" value="" style="endArrow=classic;html=1;fontSize=14;fontColor=#FF0000;exitX=0.5;exitY=1;exitDx=0;exitDy=0;entryX=0.5;entryY=0;entryDx=0;entryDy=0;labelBackgroundColor=#FF0000;labelBorderColor=#FF0000;strokeColor=#FF0000;strokeWidth=2;" edge="1" parent="1" source="47" target="13">
                    <mxGeometry width="50" height="50" relative="1" as="geometry">
                        <mxPoint x="228" y="623" as="sourcePoint"/>
                        <mxPoint x="278" y="573" as="targetPoint"/>
                    </mxGeometry>
                </mxCell>
                <mxCell id="50" value="" style="endArrow=classic;html=1;fontSize=14;fontColor=#FF0000;exitX=0.5;exitY=1;exitDx=0;exitDy=0;entryX=0.5;entryY=0;entryDx=0;entryDy=0;labelBackgroundColor=#FF0000;labelBorderColor=#FF0000;strokeColor=#FF0000;strokeWidth=2;" edge="1" parent="1" source="48" target="27">
                    <mxGeometry width="50" height="50" relative="1" as="geometry">
                        <mxPoint x="-164" y="433" as="sourcePoint"/>
                        <mxPoint x="-146" y="472" as="targetPoint"/>
                    </mxGeometry>
                </mxCell>
                <mxCell id="51" value="" style="group" vertex="1" connectable="0" parent="1">
                    <mxGeometry x="-220.5" y="856" width="120" height="120" as="geometry"/>
                </mxCell>
                <mxCell id="52" value="B000" style="rounded=0;whiteSpace=wrap;html=1;fontSize=14;" vertex="1" parent="51">
                    <mxGeometry width="120" height="40" as="geometry"/>
                </mxCell>
                <mxCell id="53" value="&lt;span style=&quot;font-size: 15px;&quot;&gt;ユーザ情報&lt;/span&gt;" style="rounded=0;whiteSpace=wrap;html=1;fontSize=14;" vertex="1" parent="51">
                    <mxGeometry y="40" width="120" height="80" as="geometry"/>
                </mxCell>
                <mxCell id="54" value="" style="endArrow=classic;html=1;fontSize=14;fontColor=#FF0000;entryX=0.5;entryY=0;entryDx=0;entryDy=0;labelBackgroundColor=#FF0000;labelBorderColor=#FF0000;strokeColor=#FF0000;strokeWidth=2;exitX=0.5;exitY=1;exitDx=0;exitDy=0;" edge="1" parent="1" target="52" source="55">
                    <mxGeometry width="50" height="50" relative="1" as="geometry">
                        <mxPoint x="-177.5" y="806" as="sourcePoint"/>
                        <mxPoint x="269.5" y="714" as="targetPoint"/>
                        <Array as="points"/>
                    </mxGeometry>
                </mxCell>
                <mxCell id="55" value="ログイン時にヘッダの「ユーザ情報」押下" style="text;html=1;strokeColor=none;fillColor=none;align=left;verticalAlign=middle;whiteSpace=wrap;rounded=0;labelBackgroundColor=default;fontSize=14;fontColor=#FF0000;" vertex="1" parent="1">
                    <mxGeometry x="-301" y="779" width="281" height="48" as="geometry"/>
                </mxCell>
                <mxCell id="56" value="" style="endArrow=classic;html=1;fontSize=14;fontColor=default;edgeStyle=elbowEdgeStyle;entryX=0;entryY=0.5;entryDx=0;entryDy=0;exitX=1;exitY=0.25;exitDx=0;exitDy=0;" edge="1" parent="1" source="53" target="28">
                    <mxGeometry width="50" height="50" relative="1" as="geometry">
                        <mxPoint x="-7" y="1013" as="sourcePoint"/>
                        <mxPoint x="146" y="552" as="targetPoint"/>
                        <Array as="points">
                            <mxPoint x="109" y="728"/>
                        </Array>
                    </mxGeometry>
                </mxCell>
                <mxCell id="57" value="" style="group" vertex="1" connectable="0" parent="1">
                    <mxGeometry x="-48" y="952" width="120" height="120" as="geometry"/>
                </mxCell>
                <mxCell id="58" value="B001" style="rounded=0;whiteSpace=wrap;html=1;fontSize=14;" vertex="1" parent="57">
                    <mxGeometry width="120" height="40" as="geometry"/>
                </mxCell>
                <mxCell id="59" value="&lt;span style=&quot;font-size: 15px;&quot;&gt;ユーザ名変更&lt;/span&gt;" style="rounded=0;whiteSpace=wrap;html=1;fontSize=14;" vertex="1" parent="57">
                    <mxGeometry y="40" width="120" height="80" as="geometry"/>
                </mxCell>
                <mxCell id="60" value="" style="group" vertex="1" connectable="0" parent="1">
                    <mxGeometry x="-48" y="1109" width="120" height="120" as="geometry"/>
                </mxCell>
                <mxCell id="61" value="B002" style="rounded=0;whiteSpace=wrap;html=1;fontSize=14;" vertex="1" parent="60">
                    <mxGeometry width="120" height="40" as="geometry"/>
                </mxCell>
                <mxCell id="62" value="&lt;span style=&quot;font-size: 15px;&quot;&gt;パスワード変更&lt;/span&gt;" style="rounded=0;whiteSpace=wrap;html=1;fontSize=14;" vertex="1" parent="60">
                    <mxGeometry y="40" width="120" height="80" as="geometry"/>
                </mxCell>
                <mxCell id="63" value="" style="edgeStyle=elbowEdgeStyle;html=1;fontSize=14;fontColor=default;entryX=0;entryY=0.25;entryDx=0;entryDy=0;exitX=1;exitY=0.75;exitDx=0;exitDy=0;" edge="1" parent="1" source="53" target="59">
                    <mxGeometry relative="1" as="geometry">
                        <mxPoint x="-88" y="939" as="sourcePoint"/>
                        <mxPoint x="-45" y="939" as="targetPoint"/>
                    </mxGeometry>
                </mxCell>
                <mxCell id="64" value="" style="edgeStyle=elbowEdgeStyle;html=1;fontSize=14;fontColor=default;entryX=0;entryY=0.25;entryDx=0;entryDy=0;exitX=1;exitY=0.75;exitDx=0;exitDy=0;" edge="1" parent="1" source="53" target="62">
                    <mxGeometry relative="1" as="geometry">
                        <mxPoint x="-90.5" y="946" as="sourcePoint"/>
                        <mxPoint x="-38" y="1022" as="targetPoint"/>
                    </mxGeometry>
                </mxCell>
                <mxCell id="65" value="" style="edgeStyle=elbowEdgeStyle;html=1;fontSize=14;fontColor=default;entryX=0.75;entryY=1;entryDx=0;entryDy=0;exitX=0;exitY=0.5;exitDx=0;exitDy=0;" edge="1" parent="1" source="59" target="53">
                    <mxGeometry relative="1" as="geometry">
                        <mxPoint x="-48" y="1012" as="sourcePoint"/>
                        <mxPoint x="-38" y="1042" as="targetPoint"/>
                        <Array as="points">
                            <mxPoint x="-130" y="1004"/>
                        </Array>
                    </mxGeometry>
                </mxCell>
                <mxCell id="66" value="" style="edgeStyle=elbowEdgeStyle;html=1;fontSize=14;fontColor=default;entryX=0.75;entryY=1;entryDx=0;entryDy=0;exitX=0;exitY=0.5;exitDx=0;exitDy=0;" edge="1" parent="1" source="62" target="53">
                    <mxGeometry relative="1" as="geometry">
                        <mxPoint x="-38" y="1022" as="sourcePoint"/>
                        <mxPoint x="-90.5" y="946" as="targetPoint"/>
                        <Array as="points">
                            <mxPoint x="-130" y="1096"/>
                        </Array>
                    </mxGeometry>
                </mxCell>
                <mxCell id="67" value="" style="edgeStyle=elbowEdgeStyle;html=1;fontSize=14;fontColor=default;entryX=0;entryY=0.25;entryDx=0;entryDy=0;exitX=1;exitY=0.5;exitDx=0;exitDy=0;" edge="1" parent="1" source="28" target="40">
                    <mxGeometry relative="1" as="geometry">
                        <mxPoint x="266" y="552" as="sourcePoint"/>
                        <mxPoint x="309" y="552" as="targetPoint"/>
                    </mxGeometry>
                </mxCell>
                <mxCell id="68" value="" style="edgeStyle=elbowEdgeStyle;html=1;fontSize=14;fontColor=default;entryX=0;entryY=0.25;entryDx=0;entryDy=0;exitX=1;exitY=0.5;exitDx=0;exitDy=0;" edge="1" parent="1" source="28" target="43">
                    <mxGeometry relative="1" as="geometry">
                        <mxPoint x="266" y="552" as="sourcePoint"/>
                        <mxPoint x="309" y="681" as="targetPoint"/>
                    </mxGeometry>
                </mxCell>
                <mxCell id="69" value="" style="edgeStyle=elbowEdgeStyle;html=1;fontSize=14;fontColor=default;entryX=0;entryY=0.25;entryDx=0;entryDy=0;exitX=1;exitY=0.5;exitDx=0;exitDy=0;" edge="1" parent="1" source="28" target="46">
                    <mxGeometry relative="1" as="geometry">
                        <mxPoint x="266" y="552" as="sourcePoint"/>
                        <mxPoint x="309" y="836" as="targetPoint"/>
                    </mxGeometry>
                </mxCell>
                <mxCell id="70" value="" style="endArrow=classic;html=1;fontSize=14;fontColor=default;edgeStyle=elbowEdgeStyle;entryX=0.5;entryY=1;entryDx=0;entryDy=0;exitX=0;exitY=0.5;exitDx=0;exitDy=0;" edge="1" parent="1" source="40" target="28">
                    <mxGeometry width="50" height="50" relative="1" as="geometry">
                        <mxPoint x="242" y="685" as="sourcePoint"/>
                        <mxPoint x="199" y="685" as="targetPoint"/>
                        <Array as="points">
                            <mxPoint x="196" y="634"/>
                        </Array>
                    </mxGeometry>
                </mxCell>
                <mxCell id="71" value="" style="endArrow=classic;html=1;fontSize=14;fontColor=default;edgeStyle=elbowEdgeStyle;entryX=0.5;entryY=1;entryDx=0;entryDy=0;exitX=0;exitY=0.5;exitDx=0;exitDy=0;" edge="1" parent="1" source="43" target="28">
                    <mxGeometry width="50" height="50" relative="1" as="geometry">
                        <mxPoint x="309" y="701" as="sourcePoint"/>
                        <mxPoint x="206" y="592" as="targetPoint"/>
                        <Array as="points">
                            <mxPoint x="196" y="713"/>
                        </Array>
                    </mxGeometry>
                </mxCell>
                <mxCell id="72" value="" style="endArrow=classic;html=1;fontSize=14;fontColor=default;edgeStyle=elbowEdgeStyle;entryX=0.5;entryY=1;entryDx=0;entryDy=0;exitX=0;exitY=0.5;exitDx=0;exitDy=0;" edge="1" parent="1" source="46" target="28">
                    <mxGeometry width="50" height="50" relative="1" as="geometry">
                        <mxPoint x="309" y="856" as="sourcePoint"/>
                        <mxPoint x="206" y="592" as="targetPoint"/>
                        <Array as="points">
                            <mxPoint x="196" y="794"/>
                        </Array>
                    </mxGeometry>
                </mxCell>
            </root>
        </mxGraphModel>
    </diagram>
</mxfile>